<svg width="91" height="48" viewBox="0 0 91 48" fill="none" xmlns="http://www.w3.org/2000/svg">
<path d="M5.22518 35.727C5.35386 36.6553 5.60662 37.3493 5.98346 37.8088C6.67279 38.6452 7.85386 39.0634 9.52665 39.0634C10.5285 39.0634 11.3419 38.9531 11.9669 38.7325C13.1526 38.3097 13.7454 37.5239 13.7454 36.375C13.7454 35.704 13.4513 35.1847 12.863 34.8171C12.2748 34.4586 11.3511 34.1415 10.0919 33.8658L7.94118 33.3833C5.82721 32.9053 4.36581 32.386 3.55698 31.8254C2.1875 30.8879 1.50276 29.4219 1.50276 27.4274C1.50276 25.6075 2.16452 24.0956 3.48805 22.8915C4.81158 21.6875 6.75551 21.0855 9.31985 21.0855C11.4614 21.0855 13.2858 21.6553 14.7932 22.795C16.3097 23.9256 17.1048 25.5708 17.1783 27.7307H13.0974C13.0239 26.5083 12.4908 25.6397 11.4982 25.125C10.8364 24.7849 10.0138 24.6149 9.03033 24.6149C7.93658 24.6149 7.06342 24.8355 6.41084 25.2767C5.75827 25.7178 5.43198 26.3336 5.43198 27.1241C5.43198 27.8502 5.75368 28.3925 6.39706 28.7509C6.81066 28.9899 7.69301 29.2702 9.04412 29.5919L12.546 30.4329C14.0809 30.8006 15.239 31.2923 16.0202 31.9081C17.2335 32.864 17.8401 34.2472 17.8401 36.0579C17.8401 37.9145 17.1278 39.4586 15.7031 40.6903C14.2877 41.9127 12.284 42.5239 9.69209 42.5239C7.04504 42.5239 4.96323 41.9219 3.44669 40.7178C1.93015 39.5046 1.17187 37.841 1.17187 35.727H5.22518ZM19.3024 21.6783H23.4798V30.0469L31.3244 21.6783H36.8116L28.4844 30.0469L37.239 42H31.7794L25.5064 33.1213L23.4798 35.2031V42H19.3024V21.6783ZM43.4439 34.3208H48.6002L46.0634 26.3245L43.4439 34.3208ZM43.7059 21.6783H48.5037L55.7004 42H51.0956L49.7858 37.8226H42.2996L40.8934 42H36.454L43.7059 21.6783ZM56.5423 21.6783H60.7886V38.3465H70.8529V42H56.5423V21.6783ZM77.6094 34.3208H82.7656L80.2289 26.3245L77.6094 34.3208ZM77.8713 21.6783H82.6691L89.8658 42H85.261L83.9513 37.8226H76.4651L75.0588 42H70.6195L77.8713 21.6783Z" fill="black"/>
<path d="M44.995 19.447L41.3471 10.841L43.7982 10.8228L46.0559 16.3336L48.261 10.7897L50.7218 10.7715L47.1922 19.4307L44.995 19.447Z" fill="black"/>
</svg>
