<svg width="60" height="60" viewBox="0 0 60 60" fill="none" xmlns="http://www.w3.org/2000/svg">
<g id="Behance Logomark">
<rect width="60" height="60" rx="13.3333" fill="#1769FF"/>
<path id="behance" d="M21.1928 16.4062C22.4864 16.4062 23.6672 16.5215 24.7352 16.7495C25.8032 16.9775 26.7152 17.3519 27.476 17.8727C28.2368 18.3935 28.8272 19.0847 29.2472 19.9487C29.6672 20.8127 29.876 21.8783 29.876 23.1479C29.876 24.5183 29.564 25.6607 28.9424 26.5751C28.3208 27.4895 27.3992 28.2383 26.1824 28.8215C27.8576 29.3039 29.108 30.1487 29.9336 31.3534C30.7592 32.5583 31.172 34.0126 31.172 35.7142C31.172 37.0846 30.9056 38.2726 30.3728 39.2758C29.84 40.279 29.1224 41.0975 28.22 41.7311C27.3176 42.3671 26.2904 42.835 25.136 43.1398C23.9744 43.4446 22.7768 43.5982 21.5768 43.5958H8.39844V16.4062H21.1928ZM20.432 27.4102C21.4976 27.4102 22.3736 27.1559 23.06 26.6495C23.7464 26.1407 24.0896 25.3174 24.0872 24.175C24.0872 23.5415 23.972 23.0206 23.744 22.615C23.516 22.2094 23.2112 21.8902 22.8296 21.6622C22.448 21.4342 22.0112 21.2758 21.5168 21.187C21.008 21.0982 20.492 21.0526 19.9736 21.055H14.3792V27.4151L20.432 27.4102ZM20.7752 38.9471C21.3392 38.9494 21.9008 38.8918 22.4504 38.7766C22.9832 38.6614 23.4536 38.4718 23.8592 38.2055C24.2648 37.939 24.5888 37.5766 24.8312 37.1206C25.0712 36.6646 25.1936 36.079 25.1936 35.3686C25.1936 33.9742 24.8 32.9758 24.0128 32.3806C23.2256 31.783 22.184 31.4854 20.8904 31.4854H14.3792V38.9494L20.7752 38.9471ZM38.6936 38.3758C39.5048 39.163 40.6736 39.5566 42.1976 39.5566C43.2896 39.5566 44.228 39.283 45.0152 38.7382C45.8024 38.1934 46.2848 37.615 46.4624 37.0054H51.2216C50.4608 39.3671 49.292 41.0542 47.7176 42.0694C46.1432 43.0847 44.24 43.5934 42.0056 43.5934C40.4576 43.5934 39.0608 43.3462 37.8176 42.8518C36.5744 42.3574 35.5208 41.6518 34.6568 40.7374C33.7928 39.823 33.1256 38.7334 32.6576 37.4639C32.1896 36.1943 31.9544 34.7974 31.9544 33.2759C31.9544 31.8046 32.1944 30.4342 32.6768 29.1646C33.1592 27.895 33.8456 26.7983 34.7336 25.8719C35.6216 24.9454 36.6824 24.2158 37.9136 23.683C39.1448 23.1502 40.5104 22.8839 42.008 22.8839C43.6832 22.8839 45.1424 23.2078 46.388 23.8559C47.6312 24.5038 48.6536 25.3726 49.4528 26.4646C50.252 27.5566 50.8304 28.7998 51.1856 30.1966C51.5408 31.5934 51.668 33.0526 51.5672 34.5766H37.364C37.4384 36.3214 37.8824 37.591 38.6936 38.3758ZM44.8064 28.0198C44.1584 27.3095 43.1744 26.9542 41.8544 26.9542C40.9904 26.9542 40.2728 27.1007 39.704 27.3911C39.1328 27.6839 38.6768 28.0438 38.3336 28.4759C37.9904 28.9078 37.7504 29.3638 37.6112 29.8462C37.472 30.3286 37.388 30.7606 37.364 31.1398H46.16C45.9032 29.7718 45.452 28.7302 44.8064 28.0198ZM36.4376 17.7862H47.4272V20.8342H36.4376V17.7862Z" fill="white"/>
</g>
</svg>
