<svg width="113" height="53" viewBox="0 0 113 53" fill="none" xmlns="http://www.w3.org/2000/svg">
<g clip-path="url(#clip0_341_1004)">
<path fill-rule="evenodd" clip-rule="evenodd" d="M69.9376 39.5965C63.7416 44.5062 54.611 47.3291 46.6744 47.6062C35.5462 47.9948 25.3841 44.2288 17.5659 37.6478C16.9516 37.1303 17.4595 36.378 18.1887 36.7723C26.5344 41.2457 36.7479 43.7556 47.195 43.3908C54.2407 43.1447 61.9405 41.4164 68.9615 38.1425C70.0222 37.6475 70.9631 38.7785 69.9376 39.5965Z" fill="white"/>
<path fill-rule="evenodd" clip-rule="evenodd" d="M72.4759 36.4792C71.6298 35.469 67.0853 36.1762 65.0453 36.4907C64.4239 36.5887 64.3097 36.0489 64.8582 35.6387C68.4036 32.9536 74.3937 33.4837 75.1191 34.3169C75.8447 35.1548 75.177 41.164 71.861 44.1368C71.3523 44.5934 70.8439 44.3774 71.0571 43.7881C71.7571 41.8463 73.327 37.494 72.4759 36.4792Z" fill="white"/>
<path fill-rule="evenodd" clip-rule="evenodd" d="M64.5278 17.5687L64.441 15.082C64.4278 14.7056 64.7049 14.4432 65.0478 14.4312L76.1809 14.0424C76.5382 14.0299 76.833 14.2772 76.8459 14.6488L76.9203 16.7782C76.928 17.1356 76.6442 17.613 76.1364 18.37L70.6551 26.8081C72.797 26.6808 75.0709 26.921 77.0528 27.9488C77.4998 28.1812 77.6315 28.5391 77.6773 28.8952L77.77 31.5487C77.7826 31.9107 77.3973 32.3487 76.9704 32.1442C73.4825 30.4678 68.9262 30.4314 65.2092 32.574C64.8307 32.797 64.4111 32.392 64.3985 32.0299L64.3105 29.5099C64.2963 29.1049 64.277 28.414 64.6604 27.7853L71.0093 17.9671L65.1927 18.1703C64.8354 18.1827 64.5408 17.9402 64.5278 17.5687Z" fill="white"/>
<path fill-rule="evenodd" clip-rule="evenodd" d="M24.4581 34.5026L21.071 34.6209C20.7463 34.6084 20.4805 34.3744 20.4459 34.0656L19.8389 16.6825C19.8267 16.3347 20.1077 16.0483 20.4697 16.0356L23.6281 15.9253C23.9573 15.9281 24.2282 16.1715 24.263 16.485L24.3423 18.7574L24.4042 18.7552C25.1517 16.5303 26.6642 15.452 28.7507 15.3792C30.8706 15.3051 32.2307 16.2831 33.2602 18.446C34.0028 16.2212 35.8297 15.132 37.8258 15.0623C39.2454 15.0127 40.8189 15.5444 41.8128 16.8261C42.9357 18.2512 42.7908 20.3835 42.8558 22.2461L43.2342 33.2174C43.2463 33.5651 42.9655 33.8563 42.6035 33.869L39.2212 33.9871C38.8821 33.9751 38.6011 33.713 38.5894 33.3796L38.2677 24.1663C38.2421 23.4327 38.2449 21.6011 38.0586 20.9112C37.7654 19.7529 36.9965 19.4507 36.0151 19.4849C35.1958 19.5135 34.3574 20.0913 34.0403 20.98C33.7231 21.8687 33.8077 23.3348 33.8421 24.3209L34.1639 33.5341C34.176 33.8819 33.8952 34.1731 33.5332 34.1857L30.1509 34.3038C29.807 34.292 29.5308 34.0298 29.5191 33.6963L29.1926 24.4833C29.1249 22.5444 29.3445 19.6797 26.9387 19.7637C24.5044 19.8487 24.6969 22.6275 24.7671 24.6378L25.0888 33.851C25.1009 34.1988 24.8202 34.49 24.4581 34.5026Z" fill="white"/>
<path fill-rule="evenodd" clip-rule="evenodd" d="M86.3975 13.3661C91.4233 13.1906 94.2942 17.4116 94.4858 22.8995C94.671 28.2016 91.8119 32.5131 87.0719 32.6786C82.1366 32.8509 79.2991 28.6287 79.1113 23.2504C78.9223 17.8387 81.4955 13.5373 86.3975 13.3661ZM86.55 16.9141C84.0538 17.0013 84.0154 20.4082 84.0894 22.5281C84.1636 24.6527 84.2886 29.189 86.9468 29.0962C89.5717 29.0045 89.5678 25.3416 89.4899 23.1121C89.4387 21.6449 89.3155 19.894 88.8239 18.5184C88.4006 17.3217 87.6266 16.8765 86.55 16.9141Z" fill="white"/>
<path fill-rule="evenodd" clip-rule="evenodd" d="M101.322 31.8185L97.9495 31.9362C97.6104 31.9242 97.3294 31.6622 97.3177 31.3287L96.7058 13.941C96.7232 13.6208 96.9956 13.3633 97.3386 13.3513L100.478 13.2417C100.774 13.2456 101.024 13.4372 101.1 13.7064L101.193 16.3646L101.255 16.3625C102.12 13.9522 103.409 12.772 105.748 12.6904C107.268 12.6373 108.769 13.1334 109.774 14.6007C110.708 15.9608 110.79 18.2998 110.849 19.9815L111.231 30.9239C111.203 31.2302 110.931 31.4829 110.597 31.4946L107.201 31.6132C106.89 31.6002 106.625 31.3805 106.581 31.0863L106.252 21.6444C106.185 19.7437 106.307 16.954 103.968 17.0356C103.144 17.0644 102.406 17.6435 102.059 18.495C101.62 19.574 101.595 20.6337 101.636 21.8056L101.962 31.1665C101.97 31.5144 101.684 31.8058 101.322 31.8185Z" fill="white"/>
<path fill-rule="evenodd" clip-rule="evenodd" d="M55.9047 25.091C55.9508 26.4106 56.0226 27.5099 55.3966 28.705C54.8915 29.6766 54.0545 30.2925 53.1065 30.3256C51.806 30.371 51.0092 29.4068 50.9581 27.9443C50.8573 25.0574 53.4257 24.4431 55.8791 24.3574L55.9047 25.091ZM59.6087 33.2274C59.3918 33.4353 59.0683 33.4609 58.8112 33.3363C57.6543 32.4419 57.4343 32.0155 56.7887 31.1462C54.997 33.1071 53.6972 33.72 51.2915 33.804C48.438 33.9037 46.1614 32.2232 46.0385 28.7027C45.9425 25.954 47.3634 24.0299 49.4562 23.0411C51.2667 22.167 53.8294 21.9344 55.7843 21.642L55.769 21.2037C55.7409 20.3986 55.7695 19.4437 55.2689 18.7648C54.8374 18.1551 54.0376 17.9255 53.3373 17.9499C52.0463 17.995 50.9214 18.6973 50.6882 20.079C50.6417 20.3859 50.4283 20.6939 50.1191 20.719L46.8245 20.4811C46.5461 20.4288 46.2286 20.2157 46.2948 19.7889C46.9084 15.7801 50.4679 14.4538 53.6883 14.3414C55.3365 14.2838 57.5051 14.6469 58.8492 15.8496C60.5512 17.3307 60.4657 19.3894 60.5437 21.6237L60.728 26.902C60.7834 28.4883 61.4651 29.1609 62.1144 29.9967C62.3394 30.2941 62.3998 30.6593 62.1315 30.8976C61.4609 31.4981 60.2693 32.6129 59.6138 33.2368L59.6087 33.2274Z" fill="white"/>
<path fill-rule="evenodd" clip-rule="evenodd" d="M11.5011 26.6416C11.5472 27.9612 11.619 29.0605 10.993 30.2556C10.4879 31.2272 9.65567 31.8429 8.7029 31.8762C7.40238 31.9216 6.61034 30.9572 6.55927 29.4947C6.45845 26.6078 9.0269 25.9935 11.4755 25.908L11.5011 26.6416ZM15.2051 34.778C14.9882 34.9859 14.6647 35.0115 14.4076 34.8869C13.2507 33.9925 13.0355 33.566 12.3851 32.6968C10.5934 34.6576 9.2984 35.2705 6.88791 35.3546C4.03915 35.4541 1.75783 33.7738 1.63489 30.2533C1.5389 27.5046 2.9646 25.5804 5.05255 24.5917C6.8631 23.7176 9.42581 23.485 11.3807 23.1926L11.3654 22.7543C11.3373 21.9492 11.3659 20.9943 10.87 20.3153C10.4338 19.7057 9.63399 19.4761 8.93848 19.5003C7.64749 19.5454 6.51777 20.2479 6.28461 21.6297C6.23809 21.9365 6.02467 22.2445 5.72029 22.2694L2.42095 22.0317C2.14249 21.9794 1.82978 21.7661 1.8912 21.3395C2.50957 17.3305 6.06432 16.0044 9.28466 15.892C10.9329 15.8344 13.1015 16.1975 14.4456 17.4002C16.1476 18.8813 16.0621 20.94 16.1401 23.1743L16.3244 28.4526C16.3798 30.0389 17.0615 30.7115 17.7108 31.5473C17.9406 31.8446 18.001 32.2097 17.7327 32.448C17.0621 33.0486 15.8704 34.1633 15.2149 34.7872L15.2051 34.778Z" fill="white"/>
</g>
<defs>
<clipPath id="clip0_341_1004">
<rect width="110" height="48" fill="white" transform="translate(0.724609 4.18359) rotate(-2)"/>
</clipPath>
</defs>
</svg>
