<svg width="145" height="54" viewBox="0 0 145 54" fill="none" xmlns="http://www.w3.org/2000/svg">
<g clip-path="url(#clip0_341_997)">
<path d="M53.7733 15.993L45.9029 16.2678C45.3643 16.2866 44.9199 16.6939 44.8545 17.2285L42.3761 37.5215C42.3267 37.9219 42.6477 38.2702 43.0516 38.256L46.809 38.1248C47.3476 38.106 47.792 37.6988 47.8574 37.163L48.5258 31.6897C48.59 31.1539 49.0356 30.7466 49.573 30.7279L52.0645 30.6409C57.2489 30.4598 60.1534 27.8466 60.7612 22.8478C61.0374 20.6604 60.6405 18.9632 59.5803 17.802C58.4158 16.5268 56.4075 15.901 53.7733 15.993ZM54.9387 23.3322C54.6069 26.1714 52.4491 26.2467 50.3627 26.3196L49.1751 26.361L49.8241 21.0578C49.8624 20.7373 50.1304 20.4928 50.4527 20.4816L50.997 20.4626C52.4182 20.413 53.7589 20.3661 54.48 21.1521C54.91 21.621 55.0617 22.3347 54.9387 23.3322Z" fill="white"/>
<path d="M77.5538 22.4515L73.7849 22.5831C73.4638 22.5943 73.1947 22.8387 73.1563 23.1592L73.0262 24.2192L72.7494 23.8463C71.8921 22.6906 70.0588 22.3583 68.2428 22.4217C64.078 22.5672 60.631 25.8458 60.0928 30.2948C59.8096 32.5147 60.3955 34.6074 61.6989 36.0355C62.8947 37.3488 64.5578 37.8553 66.513 37.787C69.8688 37.6698 71.6543 35.4471 71.6543 35.4471L71.5228 36.5002C71.4735 36.9029 71.7945 37.2512 72.1961 37.2371L75.591 37.1186C76.1307 37.0997 76.5728 36.6925 76.6394 36.1567L78.2258 23.1861C78.2764 22.7869 77.9566 22.4374 77.5538 22.4515ZM72.5565 29.9702C72.268 32.1361 70.6095 33.6412 68.4299 33.7173C67.3355 33.7555 66.4486 33.435 65.8638 32.7895C65.2837 32.1484 65.0391 31.2155 65.1798 30.1621C65.4447 28.0155 67.1303 26.4622 69.2766 26.3873C70.3469 26.3499 71.2293 26.6751 71.8258 27.326C72.4237 27.9838 72.6846 28.9218 72.5565 29.9702Z" fill="white"/>
<path d="M97.6262 21.7505L93.8389 21.8827C93.4776 21.8953 93.1443 22.0867 92.95 22.3942L87.9951 30.271L85.5228 22.9543C85.3673 22.4966 84.9293 22.1938 84.446 22.2107L80.7242 22.3407C80.272 22.3565 79.9732 22.8094 80.1319 23.2301L84.7312 35.3268L81.0025 41.0003C80.7093 41.4473 81.041 42.036 81.5738 42.0174L85.3565 41.8853C85.7156 41.8728 86.0455 41.6861 86.2389 41.3844L98.2008 22.7616C98.4871 22.3161 98.1568 21.7319 97.6262 21.7505Z" fill="white"/>
<path d="M109.911 14.0325L102.04 14.3074C101.502 14.3262 101.058 14.7334 100.992 15.268L98.5141 35.561C98.4647 35.9614 98.7857 36.3097 99.1873 36.2957L103.227 36.1546C103.602 36.1415 103.913 35.8564 103.959 35.4815L104.663 29.7293C104.727 29.1935 105.172 28.7862 105.71 28.7675L108.2 28.6805C113.386 28.4994 116.289 25.8862 116.898 20.8873C117.175 18.7 116.776 17.0029 115.716 15.8416C114.553 14.5664 112.545 13.9405 109.911 14.0325ZM111.077 21.3718C110.746 24.2109 108.588 24.2862 106.501 24.3591L105.314 24.4005L105.964 19.0972C106.003 18.7767 106.268 18.5324 106.592 18.5211L107.136 18.5021C108.556 18.4525 109.898 18.4056 110.619 19.1916C111.049 19.6605 111.2 20.3743 111.077 21.3718Z" fill="white"/>
<path d="M133.691 20.491L129.924 20.6226C129.601 20.6339 129.334 20.8782 129.296 21.1987L129.166 22.2587L128.888 21.8859C128.031 20.7302 126.199 20.3978 124.383 20.4612C120.218 20.6066 116.772 23.8852 116.234 28.3343C115.952 30.5541 116.536 32.6468 117.839 34.075C119.037 35.3882 120.698 35.8948 122.653 35.8265C126.009 35.7093 127.794 33.4865 127.794 33.4865L127.663 34.5397C127.614 34.9423 127.935 35.2906 128.339 35.2765L131.732 35.158C132.27 35.1392 132.714 34.732 132.78 34.1962L134.367 21.2256C134.415 20.8264 134.094 20.4769 133.691 20.491ZM128.693 28.0098C128.407 30.1756 126.746 31.6808 124.567 31.7569C123.474 31.795 122.585 31.4746 122 30.8291C121.42 30.188 121.178 29.2551 121.316 28.2017C121.584 26.055 123.267 24.5018 125.413 24.4269C126.484 24.3895 127.366 24.7147 127.963 25.3656C128.563 26.0233 128.824 26.9613 128.693 28.0098Z" fill="white"/>
<path d="M137.899 13.6093L135.386 34.2734C135.337 34.6737 135.658 35.022 136.059 35.008L139.307 34.8946C139.847 34.8758 140.291 34.4685 140.355 33.9328L142.836 13.6409C142.885 13.2405 142.564 12.891 142.163 12.9051L138.526 13.032C138.205 13.0444 137.937 13.2888 137.899 13.6093Z" fill="white"/>
<path d="M9.85537 43.342L10.3237 39.498L8.98196 39.5137L2.57999 39.7373L6.04392 11.372C6.05476 11.2864 6.09687 11.2054 6.16049 11.1468C6.22412 11.0881 6.30705 11.0541 6.39451 11.051L17.1891 10.6741C20.7728 10.5489 23.2719 11.2083 24.6145 12.6351C25.244 13.3044 25.6547 14.0125 25.8688 14.8001C26.0936 15.6264 26.1318 16.6218 25.9832 17.8425L25.9724 17.9316L25.9996 18.7096L26.6169 19.0314C27.1362 19.284 27.5521 19.5795 27.8752 19.9231C28.4136 20.4953 28.7747 21.234 28.9473 22.1186C29.1254 23.0284 29.1151 24.1188 28.9188 25.3596C28.6921 26.7871 28.2887 28.0375 27.721 29.069C27.1988 30.0194 26.5192 30.8162 25.7011 31.4439C24.92 32.0404 23.9834 32.5052 22.917 32.819C21.8838 33.127 20.6998 33.3054 19.396 33.351L18.5559 33.3803C17.9551 33.4013 17.3792 33.638 16.9347 34.0418C16.4894 34.4537 16.2045 35.0052 16.1319 35.6L16.0806 35.9463L15.2526 42.7215L15.2129 42.9706C15.203 43.0493 15.1825 43.0892 15.1512 43.1168C15.1232 43.1419 15.0824 43.1595 15.0421 43.1609L9.85537 43.342Z" fill="#253B80"/>
<path d="M27.154 17.9802C27.129 18.1873 27.0995 18.3992 27.0657 18.617C25.8973 25.9755 21.1153 28.6705 14.8951 28.8877L11.7281 28.9983C10.9674 29.0248 10.3457 29.5996 10.2533 30.3541L8.99097 40.6944L8.63359 43.6254C8.57368 44.1207 8.96896 44.5516 9.46611 44.5343L15.0832 44.3381C15.7484 44.3149 16.2966 43.8118 16.3784 43.1522L16.4237 42.8648L17.2469 36.1164L17.3019 35.7457C17.3825 35.0839 17.9318 34.5807 18.597 34.5575L19.4371 34.5282C24.8793 34.3381 29.0625 31.9798 30.0844 25.5424C30.5112 22.8532 30.1641 20.6323 28.7329 19.1118C28.2998 18.6534 27.7694 18.279 27.154 17.9802Z" fill="#179BD7"/>
<path d="M25.6441 17.4384C25.4244 17.3827 25.198 17.333 24.966 17.2893C24.7329 17.2467 24.4943 17.2101 24.2489 17.1795C23.3902 17.0712 22.4523 17.0383 21.4499 17.0733L12.9892 17.3687C12.7809 17.376 12.5846 17.4301 12.4103 17.5215C12.0267 17.7227 11.7496 18.1022 11.6952 18.5569L10.2935 30.0197L10.2533 30.3541C10.3456 29.5997 10.9673 29.0249 11.728 28.9983L14.8951 28.8877C21.1152 28.6705 25.8972 25.9744 27.0656 18.617C27.1006 18.3992 27.1289 18.1873 27.154 17.9802C26.7871 17.8018 26.3913 17.652 25.9664 17.5274C25.8616 17.4965 25.7534 17.4669 25.6441 17.4384Z" fill="#222D65"/>
<path d="M11.6952 18.557C11.7496 18.1023 12.0267 17.7227 12.4103 17.5227C12.5857 17.4313 12.7809 17.3772 12.9892 17.37L21.45 17.0745C22.4523 17.0395 23.3902 17.0724 24.2489 17.1807C24.4943 17.2113 24.7329 17.2479 24.966 17.2905C25.198 17.3342 25.4244 17.3839 25.6441 17.4396C25.7534 17.4681 25.8616 17.4977 25.9675 17.5274C26.3924 17.652 26.7883 17.803 27.1551 17.9803C27.4843 15.2645 26.9931 13.4404 25.4746 11.8262C23.8006 10.0492 20.8674 9.36579 17.1491 9.49563L6.35445 9.87259C5.59491 9.89911 4.9663 10.4741 4.87516 11.2297L1.37417 39.8866C1.30524 40.4536 1.75801 40.9471 2.32652 40.9272L8.99088 40.6945L10.2934 30.0198L11.6952 18.557Z" fill="#253B80"/>
</g>
<defs>
<clipPath id="clip0_341_997">
<rect width="143" height="48" fill="white" transform="translate(0.147461 5.08618) rotate(-2)"/>
</clipPath>
</defs>
</svg>
