<svg width="136" height="53" viewBox="0 0 136 53" fill="none" xmlns="http://www.w3.org/2000/svg">
<g clip-path="url(#clip0_341_996)">
<path d="M15.3996 10.1255L0.77356 10.6362L1.99504 45.6149L15.3996 10.1255Z" fill="#FA0C00"/>
<path d="M25.6906 9.76611L40.2976 9.25603L41.519 44.2347L25.6906 9.76611Z" fill="#FA0C00"/>
<path d="M20.9955 22.8378L31.076 44.5995L24.9683 44.8128L21.9404 37.878L15.1277 38.1159L20.9955 22.8378Z" fill="#FA0C00"/>
<path d="M64.9353 30.6671L66.8326 35.5521C66.8941 35.674 66.9819 35.7281 67.1343 35.7228L70.4502 35.607C70.6312 35.6007 70.6568 35.5139 70.6219 35.3339L63.1065 16.545C63.0726 16.3935 63.043 16.3659 62.8906 16.3713L58.7743 16.515C58.66 16.519 58.5963 16.6071 58.6006 16.7309C58.5784 17.7334 58.5033 18.0413 58.3897 18.341L52.8886 35.9245C52.8673 36.1352 52.937 36.2186 53.1085 36.2126L56.0719 36.1091C56.2529 36.1028 56.3367 36.0426 56.397 35.8593L57.8557 30.9143L64.9353 30.6671ZM58.6862 27.6513C59.4874 24.9139 60.5478 21.4043 60.955 19.4058L60.9836 19.4048C61.6469 21.4613 63.1818 25.529 63.8792 27.4699L58.6862 27.6513Z" fill="white"/>
<path d="M79.449 35.5885C81.2308 35.5263 83.1156 35.1361 85.0114 34.2399C85.1619 34.1774 85.1881 34.1097 85.1831 33.9668C85.1073 33.4352 85.0137 32.6658 84.9931 32.075L84.3675 14.1616C84.3635 14.0473 84.3615 13.9901 84.2186 13.9951L80.9885 14.1079C80.8646 14.1122 80.8094 14.1714 80.8148 14.3239L81.0267 20.3934C80.5197 20.3539 80.1662 20.3376 79.7469 20.3523C74.5349 20.5343 71.4535 24.0858 71.6035 28.3831C71.7776 33.3665 75.1517 35.7386 79.449 35.5885ZM81.439 32.1991C80.9114 32.3892 80.3229 32.4766 79.7227 32.4975C77.3596 32.5801 75.3788 31.3136 75.2656 28.074C75.1655 25.2059 77.0977 23.4403 79.737 23.3482C80.2706 23.3295 80.7395 23.3704 81.1355 23.5092L81.439 32.1991Z" fill="white"/>
<path d="M95.0063 19.8193C90.5566 19.9746 87.922 23.482 88.069 27.6935C88.2005 31.4572 90.5254 35.2016 95.4707 35.0289C99.6536 34.8828 102.481 31.7027 102.32 27.1004C102.178 23.0414 99.5704 19.6599 95.0063 19.8193ZM94.9297 22.8175C97.4452 22.7296 98.5879 24.8553 98.6741 27.3232C98.7806 30.3723 97.2613 31.9422 95.4319 32.006C93.1737 32.0849 91.7735 30.2353 91.678 27.5007C91.5798 24.6898 92.9383 22.887 94.9297 22.8175Z" fill="white"/>
<path d="M105.181 13.2629C105.057 13.2673 104.973 13.3274 104.978 13.4799L105.686 33.7563C105.689 33.842 105.78 33.9915 105.905 34.0158C107.34 34.4045 108.834 34.5622 110.368 34.5086C114.761 34.3552 118.934 31.481 118.743 25.9927C118.604 22.0194 115.773 19.094 111.505 19.2431C110.523 19.2774 109.614 19.4618 108.823 19.7565L108.562 13.3834C108.555 13.1737 108.496 13.1472 108.287 13.1545L105.181 13.2629ZM115.106 26.4822C115.221 29.7695 113.026 31.3916 110.596 31.4765C110.091 31.4941 109.642 31.4812 109.228 31.3716L108.926 22.7198C109.387 22.5225 109.944 22.3504 110.982 22.3141C113.326 22.2323 115.007 23.6618 115.106 26.4822Z" fill="white"/>
<path d="M130.847 27.001C132.296 26.9504 133.486 26.8802 133.892 26.7707C134.043 26.7367 134.099 26.6776 134.123 26.5527C134.197 26.2257 134.212 25.5479 134.183 24.7189C134.084 21.8985 132.268 18.518 127.885 18.6711C123.407 18.8275 121.047 22.5637 121.191 26.6799C121.319 30.3293 123.376 34.0544 128.769 33.8661C130.789 33.7955 132.083 33.426 133.189 32.8531C133.301 32.7919 133.355 32.6947 133.349 32.5232L133.263 30.0553C133.258 29.9124 133.171 29.8868 133.087 29.947C131.979 30.4626 130.768 30.7434 129.434 30.79C126.414 30.8955 124.983 29.276 124.825 27.2113L130.847 27.001ZM124.736 24.6577C124.924 23.201 125.784 21.5969 127.832 21.5254C130.09 21.4465 130.747 23.322 130.777 24.1796C130.778 24.2082 130.783 24.3321 130.786 24.4178C130.663 24.4507 130.282 24.464 129.157 24.5033L124.736 24.6577Z" fill="white"/>
</g>
<defs>
<clipPath id="clip0_341_996">
<rect width="133" height="48" fill="white" transform="translate(0.564209 4.63989) rotate(-2)"/>
</clipPath>
</defs>
</svg>
