<svg width="129" height="53" viewBox="0 0 129 53" fill="none" xmlns="http://www.w3.org/2000/svg">
<g clip-path="url(#clip0_341_1007)">
<path fill-rule="evenodd" clip-rule="evenodd" d="M124.32 32.1024C124.426 32.9688 125.16 34.0506 126.365 34.0086L127.069 33.984C127.343 33.9744 127.558 33.7428 127.549 33.4694L127.008 17.9731L127.004 17.9732C126.982 17.7127 126.759 17.5111 126.494 17.5203L124.311 17.5966C124.047 17.6058 123.838 17.8224 123.834 18.084L123.83 18.0841L123.874 19.3432C122.479 17.7411 120.346 17.1303 118.231 17.2042C113.424 17.372 109.663 21.4082 109.831 26.2195C109.999 31.0311 114.032 34.7951 118.84 34.6272C120.954 34.5534 123.231 33.6521 124.32 32.1005L124.32 32.1024ZM118.741 31.5781C115.684 31.6849 113.117 29.2363 113.008 26.1085C112.899 22.9814 115.288 20.3596 118.346 20.2528C121.404 20.146 123.971 22.5947 124.08 25.7219C124.189 28.8496 121.8 31.4713 118.741 31.5781Z" fill="white"/>
<path fill-rule="evenodd" clip-rule="evenodd" d="M107.031 25.2113C106.874 20.6912 103.918 17.7414 99.3742 17.9C97.2052 17.9758 95.471 19.2931 94.8806 20.3932C94.7154 19.5549 94.2373 18.6843 92.8503 18.7327L92.1433 18.7574C91.8699 18.767 91.6544 18.9988 91.664 19.2722L92.1526 33.2645C92.1526 33.265 92.1526 33.266 92.1527 33.2667L92.2051 34.7697L92.2079 34.7696C92.2313 35.0298 92.4545 35.2315 92.7185 35.2223L94.9018 35.1461C94.9352 35.1449 94.9679 35.1398 94.9994 35.1326C95.0137 35.1292 95.0269 35.1231 95.0409 35.1186C95.0569 35.113 95.0737 35.1086 95.0889 35.1017C95.1081 35.0929 95.1253 35.0815 95.143 35.0708C95.1517 35.065 95.1609 35.061 95.1692 35.055C95.1905 35.0402 95.2099 35.0225 95.2286 35.0046C95.2316 35.0013 95.2353 34.999 95.2384 34.996C95.2594 34.9742 95.2784 34.9503 95.2951 34.9256C95.3471 34.8487 95.3773 34.7566 95.3793 34.6589L95.3822 34.6588L95.0625 25.5047C94.9777 23.0772 96.8757 21.0403 99.3016 20.9556C101.727 20.8709 103.763 22.7704 103.848 25.1979L104.117 32.8495L104.117 32.8467C104.117 32.8535 104.119 32.8604 104.119 32.8677L104.171 34.3519L104.174 34.3518C104.197 34.6119 104.42 34.8137 104.684 34.8045L106.868 34.7282C106.901 34.7271 106.934 34.7219 106.965 34.7147C106.978 34.7119 106.99 34.7062 107.002 34.7023C107.02 34.6964 107.038 34.6913 107.055 34.6838C107.073 34.6758 107.089 34.6649 107.105 34.6548C107.115 34.6486 107.126 34.6441 107.136 34.6371C107.155 34.6231 107.173 34.6065 107.191 34.5901C107.195 34.5856 107.2 34.5822 107.204 34.5778C107.224 34.557 107.242 34.5348 107.258 34.5116C107.259 34.5099 107.261 34.5085 107.262 34.5067C107.313 34.4305 107.343 34.3395 107.345 34.2423C107.345 34.2416 107.345 34.241 107.345 34.241L107.348 34.2409L107.031 25.2113Z" fill="white"/>
<path fill-rule="evenodd" clip-rule="evenodd" d="M84.5551 33.491C84.6618 34.3573 85.3956 35.4392 86.5998 35.3971L87.3044 35.3725C87.5775 35.363 87.7933 35.1313 87.7838 34.858L87.2426 19.3618L87.2398 19.3619C87.2165 19.1013 86.9932 18.8997 86.7295 18.909L84.5461 18.9852C84.2821 18.9944 84.0738 19.211 84.0681 19.4726L84.0656 19.4727L84.1096 20.7319C82.7142 19.1297 80.5812 18.5189 78.4663 18.5928C73.659 18.7607 69.8982 22.7968 70.0662 27.6082C70.2342 32.4197 74.2674 36.1838 79.0747 36.0159C81.1896 35.9421 83.4659 35.0408 84.5548 33.489L84.5551 33.491ZM78.9767 32.9667C75.9195 33.0735 73.3523 30.625 73.243 27.4972C73.1338 24.37 75.524 21.7482 78.5812 21.6414C81.6388 21.5347 84.2056 23.9834 84.3148 27.1106C84.424 30.2383 82.0343 32.8599 78.9767 32.9667Z" fill="white"/>
<path fill-rule="evenodd" clip-rule="evenodd" d="M57.3002 32.2207C58.793 33.1803 60.4011 33.6156 61.93 33.5622C63.3865 33.5113 64.8659 32.7031 64.82 31.3877C64.7586 29.6317 61.468 29.4731 59.3821 28.8439C57.2957 28.2147 55.4692 26.8272 55.3872 24.4799C55.2618 20.8881 58.4079 19.293 61.3927 19.1888C63.2838 19.1227 65.2568 19.6787 66.553 20.5285C67.0002 20.8437 66.7482 21.2322 66.7482 21.2322L65.6009 23.0004C65.472 23.1995 65.2405 23.3758 64.8925 23.1773C64.5445 22.9789 63.3201 22.1742 61.4992 22.2378C59.678 22.3014 58.6105 23.1814 58.6469 24.2245C58.6906 25.4755 60.13 25.8192 61.8148 26.1872C64.7524 26.8706 67.9599 27.7034 68.0846 31.2737C68.1951 34.4384 65.3055 36.4974 62.0365 36.6116C59.5592 36.6981 57.4254 36.065 55.6111 34.8277C55.2297 34.4715 55.4751 34.1197 55.4751 34.1197L56.6167 32.3605C56.85 32.0309 57.1622 32.1321 57.3002 32.2207Z" fill="white"/>
<path fill-rule="evenodd" clip-rule="evenodd" d="M48.9842 34.7331C49.0908 35.5995 49.8246 36.6814 51.0287 36.6393L51.7334 36.6147C52.0066 36.6052 52.2226 36.3735 52.213 36.1001L51.6719 20.6039L51.6688 20.604C51.6454 20.3435 51.4224 20.1419 51.1585 20.1511L48.9752 20.2274C48.7111 20.2366 48.5028 20.4532 48.4972 20.7148L48.4946 20.7149L48.5386 21.974C47.1433 20.3718 45.0104 19.7611 42.8954 19.8349C38.0881 20.0028 34.3271 24.039 34.4951 28.8503C34.6632 33.6618 38.6965 37.426 43.5038 37.2581C45.6188 37.1842 47.895 36.283 48.9838 34.7312L48.9842 34.7331ZM43.4059 34.2089C40.3484 34.3156 37.7813 31.8671 37.6721 28.7394C37.5629 25.6122 39.9529 22.9904 43.0104 22.8836C46.0677 22.7768 48.6346 25.2255 48.7438 28.3527C48.8531 31.4805 46.4632 34.1021 43.4059 34.2089Z" fill="white"/>
<path fill-rule="evenodd" clip-rule="evenodd" d="M22.3123 29.8688C19.0773 29.9818 16.5461 32.696 16.6591 35.9314C16.7721 39.1666 19.4864 41.6976 22.7215 41.5846C25.9567 41.4717 28.4877 38.7575 28.3747 35.5223C28.2617 32.2869 25.5475 29.7558 22.3123 29.8688ZM7.09344 30.4008C3.85831 30.5138 1.32723 33.2274 1.44021 36.4629C1.55319 39.698 4.26741 42.2291 7.50254 42.1161C10.7378 42.0031 13.269 39.2889 13.156 36.0537C13.043 32.8183 10.3287 30.2879 7.09344 30.4008ZM20.3049 22.6076C20.4179 25.843 17.887 28.5575 14.6518 28.6704C11.4165 28.7834 8.70243 26.2521 8.58944 23.0167C8.47648 19.782 11.0074 17.0675 14.2426 16.9545C17.4778 16.8415 20.1919 19.3729 20.3049 22.6076Z" fill="#F06A6A"/>
</g>
<defs>
<clipPath id="clip0_341_1007">
<rect width="127" height="48" fill="white" transform="translate(0.321777 4.43262) rotate(-2)"/>
</clipPath>
</defs>
</svg>
