<svg width="166" height="55" viewBox="0 0 166 55" fill="none" xmlns="http://www.w3.org/2000/svg">
<g clip-path="url(#clip0_341_995)">
<path d="M40.738 37.4451L41.7446 37.201C42.6309 36.9312 42.8653 36.8035 42.8028 35.0143L42.3123 20.9688C42.2499 19.1796 41.9763 19.0399 41.1042 18.8613L40.083 18.688L40.0538 17.853L56.2166 17.2886L56.722 23.2125L55.7976 23.2448C54.9948 21.6307 54.4874 20.7825 54.0172 20.1421C53.0151 18.8037 52.3847 18.7063 50.3271 18.7781C48.8062 18.8312 48.0669 19.0362 47.6238 19.1711L47.8893 26.7753L48.6945 26.7472C50.7819 26.6743 51.2507 26.4191 51.5857 25.7505C51.9771 24.9905 52.1959 24.4155 52.431 23.4519L53.3256 23.4207L53.5942 31.1144L52.6996 31.1456C52.399 30.2305 52.1396 29.6425 51.6919 28.7922C51.308 28.0592 50.9151 27.9237 48.7382 27.9997L47.9331 28.0278L48.133 33.7533C48.2257 36.4074 48.3256 36.7024 51.2182 36.6014C53.6038 36.5181 54.0705 36.2033 55.0036 34.7077C55.5122 33.8838 56.0351 32.6115 56.7448 30.7058L57.6991 30.6724L57.5263 37.6949L40.797 38.2791L40.738 37.4451ZM60.029 25.5751C59.2849 23.9291 58.9423 23.5231 58.1884 23.3106L57.6156 23.1514L57.5885 22.3761L66.4452 22.0668L66.4723 22.8421L65.6744 23.079C65.0544 23.2798 64.7666 23.5884 64.7916 24.3041C64.8062 24.7216 64.973 25.2233 65.2345 25.8711L67.947 32.5837L68.0961 32.5785L70.2443 25.6961C70.4877 24.971 70.5893 24.4599 70.5747 24.0424C70.5518 23.3864 70.2422 23.0688 69.6107 22.9415L68.7983 22.7609L68.7712 21.9856L74.2283 21.795L74.2554 22.5703L73.6951 22.7691C72.9291 23.0645 72.6167 23.5233 71.9687 25.4866L67.8144 37.3356L65.3095 37.4231L60.029 25.5751ZM73.807 29.3934C73.6279 24.2642 77.3161 21.299 81.2226 21.1626C85.2782 21.021 87.8838 22.9603 88.1597 28.295L78.4083 28.6356C78.6665 33.4634 80.5314 34.7119 83.5731 34.6057C85.3921 34.5422 86.7749 33.9565 87.8585 33.3514L87.8929 34.3354C86.8887 35.5051 84.7063 37.1338 81.7541 37.2369C76.6229 37.3564 73.9819 34.4032 73.807 29.3934ZM78.3688 27.5024L83.3991 27.058C83.2751 23.5094 82.7522 22.2139 80.9928 22.2754C79.5018 22.3274 78.3589 23.8005 78.3688 27.5024ZM95.7349 22.925C96.5387 22.0012 98.1874 20.4806 100.156 20.4119C101.408 20.3682 102.487 21.3456 102.532 22.6279C102.577 23.9102 101.598 24.9595 100.316 25.0043C99.3915 25.0365 98.5367 24.4991 98.1806 23.7054C97.9902 23.3836 97.5994 23.3077 97.331 23.3171C96.7943 23.3358 96.1816 23.7454 95.8064 24.1168L96.1396 33.6593C96.1875 35.0311 96.312 35.176 97.2118 35.2939L98.2032 35.4682L98.2313 36.2734L89.7325 36.5702L89.7044 35.765L90.4724 35.5292C91.4471 35.2265 91.5612 35.0732 91.5174 33.8207L91.1977 24.6658C91.154 23.4134 91.0018 23.3291 90.147 22.7917L89.14 22.17L89.1192 21.5736L95.2969 20.6413L95.6332 20.8684L95.6444 22.8983L95.7349 22.925ZM103.869 35.2704L104.637 35.0346C105.612 34.7318 105.726 34.5786 105.682 33.3261L105.362 24.1712C105.319 22.9187 105.167 22.8345 104.312 22.297L103.305 21.6753L103.284 21.0789L109.462 20.1466L109.797 20.3439L109.803 22.2247L109.922 22.2205C111.434 21.063 113.338 20.0113 115.485 19.9363C117.99 19.8488 119.377 21.0842 119.47 23.7383L119.786 32.8037C119.831 34.086 119.956 34.2309 120.918 34.4362L121.701 34.6178L121.729 35.423L113.528 35.7094L113.5 34.9042L114.21 34.7003C115.096 34.4305 115.182 34.3379 115.134 32.9662L114.858 25.0637C114.796 23.2745 114.12 22.7308 112.748 22.7787C111.705 22.8152 110.669 23.0902 110.018 23.2622L110.364 33.1626C110.413 34.5642 110.505 34.6207 111.407 34.828L112.129 34.9819L112.158 35.7871L103.957 36.0735L103.929 35.2683L103.869 35.2704ZM122.03 27.799C121.833 22.1629 125.745 19.6079 129.711 19.4694C133.975 19.3205 137.792 21.7549 137.979 27.0927C138.175 32.7288 134.326 35.3414 130.27 35.483C126.006 35.6319 122.218 33.1965 122.03 27.799ZM133.039 27.5638C132.832 21.6295 131.659 20.5359 129.631 20.6067C127.782 20.6713 126.726 22.0517 126.903 27.1212C127.113 33.145 128.143 34.4227 130.29 34.3477C132.05 34.2863 133.236 33.1999 133.039 27.5638ZM140.655 31.0598L140.311 21.219L138.463 21.2836L138.438 20.5679C140.702 19.5931 142.403 17.8319 143.155 15.4469L144.825 15.3886L144.963 19.3249L148.869 19.1885L148.542 20.9316L145.023 21.0545L145.356 30.5971C145.407 32.0583 145.875 32.6391 147.337 32.588C148.052 32.5631 148.912 32.3838 149.445 32.2457L149.474 33.0807C148.781 33.7617 147.357 34.8863 144.882 34.9727C142.228 35.0654 140.756 33.9524 140.655 31.0598ZM149.849 26.7379C149.67 21.6088 153.359 18.6436 157.265 18.5072C161.321 18.3655 163.926 20.3048 164.202 25.6396L154.481 25.9791C154.739 30.8069 156.604 32.0554 159.645 31.9492C161.464 31.8857 162.847 31.3 163.931 30.6949L163.965 31.6789C162.961 32.8486 160.779 34.4773 157.826 34.5804C152.665 34.7009 150.024 31.7478 149.849 26.7379ZM154.411 24.8469L159.441 24.4025C159.317 20.8539 158.795 19.5585 157.035 19.6199C155.544 19.672 154.401 21.145 154.411 24.8469Z" fill="white"/>
<path d="M10.2544 21.1923C10.2669 21.5501 10.2579 22.1476 9.91364 22.5477C9.53847 22.9191 8.9431 22.9698 8.58526 22.9823L4.76823 23.1156C3.66487 23.1541 3.00882 23.177 2.56359 23.2523C2.32607 23.2904 2.03203 23.4201 1.88501 23.485C1.82641 23.5169 1.82537 23.487 1.85415 23.4562L10.2525 14.2954C10.2812 14.2645 10.3111 14.2635 10.2833 14.3242C10.2289 14.4754 10.12 14.7777 10.0985 15.0173C10.0545 15.4667 10.0774 16.1228 10.1159 17.2261L10.2544 21.1923ZM19.3008 47.6879C18.264 47.0672 17.697 46.2212 17.4695 45.6917C17.2431 45.192 17.104 44.6296 17.0842 44.063C16.9978 41.5879 18.9548 39.4893 21.4597 39.4018C22.2052 39.3758 22.8224 39.9514 22.8485 40.6969C22.8662 41.2038 22.6124 41.6307 22.2032 41.8838C22.0572 41.9785 21.8506 42.0454 21.7025 42.0805C21.5544 42.1155 20.9899 42.1949 20.7299 42.4429C20.44 42.6918 20.215 43.0878 20.2296 43.5053C20.2452 43.9526 20.4387 44.3639 20.7473 44.6517C21.3028 45.1697 22.0289 45.4429 22.8043 45.4158C24.832 45.345 26.4149 43.6476 26.3441 41.6198C26.2806 39.8008 25.0017 38.2331 23.3664 37.5737C23.1237 37.4627 22.7329 37.3868 22.3719 37.3098C21.9215 37.236 21.5019 37.1909 21.4721 37.192C20.2144 37.0866 17.0489 36.2119 16.7433 33.4459C16.7433 33.4459 15.9647 37.653 14.1554 38.8508C13.9796 38.9465 13.7441 39.0443 13.4778 39.1133C13.2115 39.1823 12.9143 39.2225 12.8249 39.2256C9.81926 39.5097 6.59514 38.6669 4.30928 36.4776C4.30928 36.4776 2.77556 35.307 1.88047 31.9048C1.67239 31.076 1.26247 29.5975 1.00478 28.2032C0.897619 27.6994 0.854261 27.3128 0.811944 26.956C0.760918 25.4948 1.62117 24.4794 2.74914 24.2908C2.77896 24.2897 2.86842 24.2866 2.92807 24.2845C3.61394 24.2606 8.83253 24.0783 8.83253 24.0783C9.87625 24.0419 10.4633 23.7527 10.8385 23.3813C11.3287 22.8865 11.4241 22.1964 11.396 21.3913C11.396 21.3913 11.2064 15.9639 11.1825 15.2781C11.1814 15.2482 11.1773 15.129 11.1762 15.0991C11.2868 13.9906 12.2386 13.0318 13.6998 12.9807C13.6998 12.9807 14.1471 12.9651 14.4155 12.9557C14.7137 12.9453 15.0726 12.9627 15.4017 12.981C15.6413 13.0025 15.8521 13.0549 16.2131 13.1318C18.0477 13.5156 18.5 15.3509 18.5 15.3509C18.5 15.3509 21.9502 15.8276 23.6902 16.0654C25.3407 16.3063 29.4057 16.4331 30.3237 20.4914C32.4822 30.1494 31.7079 39.6112 31.6184 39.6144C30.6569 48.8439 23.0072 48.6631 23.0072 48.6631C21.3671 48.7204 20.1257 48.2263 19.3008 47.6879ZM25.4774 27.9159C24.4902 27.8608 23.6688 28.2776 23.3966 29.0336C23.3422 29.1847 23.2888 29.3657 23.3217 29.4542C23.3547 29.5426 23.4153 29.5703 23.476 29.5981C23.8401 29.7645 24.4396 29.8331 25.3076 29.8924C26.1755 29.9517 26.774 29.9905 27.1596 29.9173C27.2192 29.9152 27.2778 29.8833 27.3343 29.7918C27.3908 29.7002 27.3548 29.5223 27.3496 29.3732C27.2011 28.5424 26.4656 28.0008 25.4774 27.9159Z" fill="#00A82D"/>
</g>
<defs>
<clipPath id="clip0_341_995">
<rect width="164" height="48" fill="white" transform="translate(-0.00012207 6.27563) rotate(-2)"/>
</clipPath>
</defs>
</svg>
